<?xml version="1.0" encoding="utf-8"?>
<!-- Generator: Adobe Illustrator 19.1.0, SVG Export Plug-In . SVG Version: 6.00 Build 0)  -->
<!DOCTYPE svg PUBLIC "-//W3C//DTD SVG 1.1//EN" "http://www.w3.org/Graphics/SVG/1.1/DTD/svg11.dtd">
<svg version="1.1" id="Capa_1" xmlns="http://www.w3.org/2000/svg" xmlns:xlink="http://www.w3.org/1999/xlink" x="0px" y="0px"
	 width="512px" height="512px" viewBox="241 -242 512 512" style="enable-background:new 241 -242 512 512;" xml:space="preserve">
<g>
	<path d="M745.5,141.6H246.6v-257.8h498.9V141.6z M261.6,126.6h468.9v-227.8H261.6V126.6z"/>
	<g>
		<path d="M322.2,29.8c0-4.8-3.1-9.8-12-10.1v-14c9-0.3,12-5.3,12-10.1c0-8.7-1.4-12.9-1.4-22.7c0-15.4,5.6-20.4,18.5-20.4h9.8v12.6
			h-2.2c-5.2,0-6.7,1.4-6.7,8.7c0,7.1,0.6,13.7,0.6,21.8c0,11.2-3.8,15.1-11.2,16.8V13c7.4,1.7,11.2,5.6,11.2,16.8
			c0,8.1-0.6,14.7-0.6,21.8c0,7.3,1.5,8.7,6.7,8.7h2.2v12.6h-9.8c-12.9,0-18.5-5-18.5-20.4C320.8,42.6,322.2,38.4,322.2,29.8z"/>
		<path d="M372.6,29.8c0-4.8-3.1-9.8-12-10.1v-14c9-0.3,12-5.3,12-10.1c0-8.7-1.4-12.9-1.4-22.7c0-15.4,5.6-20.4,18.5-20.4h9.8v12.6
			h-2.2c-5.2,0-6.7,1.4-6.7,8.7c0,7.1,0.6,13.7,0.6,21.8c0,11.2-3.8,15.1-11.2,16.8V13c7.4,1.7,11.2,5.6,11.2,16.8
			c0,8.1-0.6,14.7-0.6,21.8c0,7.3,1.5,8.7,6.7,8.7h2.2v12.6h-9.8c-12.9,0-18.5-5-18.5-20.4C371.2,42.6,372.6,38.4,372.6,29.8z"/>
		<path d="M458.6,24.2c8.1,0,14,6.4,14,14.6s-5.9,14.6-14,14.6s-14-6.4-14-14.6S450.5,24.2,458.6,24.2z"/>
		<path d="M503.4,24.2c8.1,0,14,6.4,14,14.6s-5.9,14.6-14,14.6s-14-6.4-14-14.6S495.3,24.2,503.4,24.2z"/>
		<path d="M548.2,24.2c8.1,0,14,6.4,14,14.6s-5.9,14.6-14,14.6c-8.1,0-14-6.4-14-14.6S540.1,24.2,548.2,24.2z"/>
		<path d="M601.1,60.3c5.2,0,6.7-1.4,6.7-8.7c0-7.1-0.6-13.7-0.6-21.8c0-11.2,3.8-15.1,11.2-16.8v-0.6c-7.4-1.7-11.2-5.6-11.2-16.8
			c0-8.1,0.6-14.7,0.6-21.8c0-7.3-1.5-8.7-6.7-8.7h-2.2v-12.6h9.8c12.9,0,18.5,5,18.5,20.4c0,9.8-1.4,14-1.4,22.7
			c0,4.8,3.1,9.8,12,10.1v14c-9,0.3-12,5.3-12,10.1c0,8.7,1.4,12.9,1.4,22.7c0,15.4-5.6,20.4-18.5,20.4h-9.8V60.3H601.1z"/>
		<path d="M651.5,60.3c5.2,0,6.7-1.4,6.7-8.7c0-7.1-0.6-13.7-0.6-21.8c0-11.2,3.8-15.1,11.2-16.8v-0.6c-7.4-1.7-11.2-5.6-11.2-16.8
			c0-8.1,0.6-14.7,0.6-21.8c0-7.3-1.5-8.7-6.7-8.7h-2.2v-12.6h9.8c12.9,0,18.5,5,18.5,20.4c0,9.8-1.4,14-1.4,22.7
			c0,4.8,3.1,9.8,12,10.1v14c-9,0.3-12,5.3-12,10.1c0,8.7,1.4,12.9,1.4,22.7c0,15.4-5.6,20.4-18.5,20.4h-9.8V60.3H651.5z"/>
	</g>
</g>
</svg>
