<svg version="1.1" id="Layer_1" xmlns="http://www.w3.org/2000/svg" xmlns:xlink="http://www.w3.org/1999/xlink" x="0px" y="0px"
	 viewBox="0 0 300 300" style="enable-background:new 0 0 300 300;" xml:space="preserve">
<circle cx="150" cy="150" r="150" fill="#000"/>
<g>
	<path fill="#FFFF0D" d="M109.6,146.6c4.5,1.7,7.7,4.1,9.6,7.2c1.9,3.1,2.8,7.5,2.8,13.3v19.8c0,2.5,0.8,4.3,2.5,5.3
		c1.7,1,4.2,1.5,7.5,1.5v18.8c-9.3,0-16.7-2.1-22-6.2c-5.3-4.2-8-10.6-8-19.3v-19.8c0-4.2-1.7-7.2-5-8.9s-8.3-2.6-15-2.6v-18.8
		c6.6,0,11.6-0.9,15-2.6s5-4.7,5-8.9v-19.8c0-8.7,2.7-15.1,8-19.3c5.3-4.2,12.7-6.2,22-6.2v18.8c-3.3,0-5.8,0.5-7.5,1.5
		c-1.7,1-2.5,2.8-2.5,5.3v19.8c0,5.8-0.9,10.2-2.8,13.3c-1.9,3.1-5.1,5.5-9.6,7.2V146.6z"/>
	<path fill="#FFFF0D" d="M177.6,146.6c4.5,1.7,7.7,4.1,9.6,7.2c1.9,3.1,2.8,7.5,2.8,13.3v19.8c0,2.5,0.8,4.3,2.5,5.3
		c1.7,1,4.2,1.5,7.5,1.5v18.8c-9.3,0-16.7-2.1-22-6.2c-5.3-4.2-8-10.6-8-19.3v-19.8c0-4.2-1.7-7.2-5-8.9s-8.3-2.6-15-2.6v-18.8
		c6.6,0,11.6-0.9,15-2.6s5-4.7,5-8.9v-19.8c0-8.7,2.7-15.1,8-19.3c5.3-4.2,12.7-6.2,22-6.2v18.8c-3.3,0-5.8,0.5-7.5,1.5
		c-1.7,1-2.5,2.8-2.5,5.3v19.8c0,5.8-0.9,10.2-2.8,13.3c-1.9,3.1-5.1,5.5-9.6,7.2V146.6z"/>
</g>
</svg>
