<svg viewBox="0 0 500 500" xmlns="http://www.w3.org/2000/svg" xml:space="preserve"
	 style="fill-rule:evenodd;clip-rule:evenodd;stroke-linejoin:round;stroke-miterlimit:2"><g><path style="fill:none" d="M0 0h500v500H0z"/><clipPath
		id="a"><path d="M0 0h500v500H0z"/></clipPath><g clip-path="url(#a)"><path d="M980.485 5.029c189.265 0 398.165 361.817 303.525 525.728-94.63 163.912-512.42 163.912-607.054 0C582.322 366.846 791.217 5.029 980.485 5.029Z" style="fill:#334155" transform="rotate(-180 499.727 250.876) scale(.76437)"/>
	<path d="M4976.38 1419.94c-6.27 0-11.64-.48-16.12-1.43-4.48-.96-8.2-2.53-11.14-4.71-2.94-2.18-5.12-5.05-6.53-8.64-1.41-3.58-2.11-8-2.11-13.25 0-3.32.1-6.27.29-8.83.19-2.56.41-4.99.67-7.29.26-2.31.48-4.65.67-7.01.19-2.37.29-5.03.29-7.97 0-1.67-.42-3.3-1.25-4.9-.83-1.6-2.21-3.04-4.13-4.32-1.92-1.28-4.54-2.33-7.87-3.17-3.33-.83-7.49-1.31-12.48-1.43v-19.2c4.99-.13 9.15-.61 12.48-1.44 3.33-.84 5.95-1.89 7.87-3.17s3.3-2.72 4.13-4.32c.83-1.6 1.25-3.24 1.25-4.9 0-2.94-.1-5.6-.29-7.97-.19-2.37-.41-4.7-.67-7-.26-2.31-.48-4.74-.67-7.3-.19-2.56-.29-5.51-.29-8.83 0-5.25.7-9.67 2.11-13.25s3.59-6.47 6.53-8.64c2.94-2.18 6.66-3.74 11.14-4.7s9.85-1.44 16.12-1.44h15.94v17.28h-7.1c-3.72 0-6.72.16-9.03.48-2.3.31-4.09.89-5.37 1.72-1.28.83-2.18 2.05-2.69 3.65-.51 1.6-.77 3.62-.77 6.05 0 4.86.13 9.66.38 14.4.26 4.73.39 9.92.39 15.55 0 7.68-1.57 13.15-4.71 16.42-3.13 3.26-8.22 5.47-15.26 6.62v.77c7.04 1.15 12.13 3.36 15.26 6.62 3.14 3.27 4.71 8.74 4.71 16.42 0 5.63-.13 10.81-.39 15.55-.25 4.74-.38 9.54-.38 14.4 0 2.56.26 4.61.77 6.14.51 1.54 1.41 2.72 2.69 3.56 1.28.83 3.07 1.41 5.37 1.72 2.31.33 5.31.48 9.03.48h7.1v17.28h-15.94Z"
		  style="fill:#fff;fill-rule:nonzero" transform="matrix(1.41127 0 0 1.42425 -6807.56 -1674.78)"/>
	<path d="M5091.58 1419.94c-6.27 0-11.64-.48-16.12-1.43-4.48-.96-8.2-2.53-11.14-4.71-2.94-2.18-5.12-5.05-6.53-8.64-1.41-3.58-2.11-8-2.11-13.25 0-3.32.1-6.27.29-8.83.19-2.56.41-4.99.67-7.29.26-2.31.48-4.65.67-7.01.19-2.37.29-5.03.29-7.97 0-1.67-.42-3.3-1.25-4.9-.83-1.6-2.21-3.04-4.13-4.32-1.92-1.28-4.54-2.33-7.87-3.17-3.33-.83-7.49-1.31-12.48-1.43v-19.2c4.99-.13 9.15-.61 12.48-1.44 3.33-.84 5.95-1.89 7.87-3.17s3.3-2.72 4.13-4.32c.83-1.6 1.25-3.24 1.25-4.9 0-2.94-.1-5.6-.29-7.97-.19-2.37-.41-4.7-.67-7-.26-2.31-.48-4.74-.67-7.3-.19-2.56-.29-5.51-.29-8.83 0-5.25.7-9.67 2.11-13.25s3.59-6.47 6.53-8.64c2.94-2.18 6.66-3.74 11.14-4.7s9.85-1.44 16.12-1.44h15.94v17.28h-7.1c-3.72 0-6.72.16-9.03.48-2.3.31-4.09.89-5.37 1.72-1.28.83-2.18 2.05-2.69 3.65-.51 1.6-.77 3.62-.77 6.05 0 4.86.13 9.66.38 14.4.26 4.73.39 9.92.39 15.55 0 7.68-1.57 13.15-4.71 16.42-3.13 3.26-8.22 5.47-15.26 6.62v.77c7.04 1.15 12.13 3.36 15.26 6.62 3.14 3.27 4.71 8.74 4.71 16.42 0 5.63-.13 10.81-.39 15.55-.25 4.74-.38 9.54-.38 14.4 0 2.56.26 4.61.77 6.14.51 1.54 1.41 2.72 2.69 3.56 1.28.83 3.07 1.41 5.37 1.72 2.31.33 5.31.48 9.03.48h7.1v17.28h-15.94Z"
		  style="fill:#fff;fill-rule:nonzero" transform="matrix(1.41127 0 0 1.42425 -6859.28 -1674.78)"/></g></g></svg>
